<?xml version="1.0" encoding="UTF-8" standalone="no"?>
<svg
   width="1280"
   height="400"
   overflow="hidden"
   version="1.1"
   id="svg211"
   sodipodi:docname="PDSm_1.svg"
   inkscape:version="1.2 (dc2aeda, 2022-05-15)"
   xml:space="preserve"
   xmlns:inkscape="http://www.inkscape.org/namespaces/inkscape"
   xmlns:sodipodi="http://sodipodi.sourceforge.net/DTD/sodipodi-0.dtd"
   xmlns:xlink="http://www.w3.org/1999/xlink"
   xmlns="http://www.w3.org/2000/svg"
   xmlns:svg="http://www.w3.org/2000/svg"><sodipodi:namedview
     id="namedview213"
     pagecolor="#ffffff"
     bordercolor="#000000"
     borderopacity="0.25"
     inkscape:showpageshadow="2"
     inkscape:pageopacity="0.0"
     inkscape:pagecheckerboard="0"
     inkscape:deskcolor="#d1d1d1"
     showgrid="true"
     inkscape:zoom="0.76393095"
     inkscape:cx="663.01804"
     inkscape:cy="339.03588"
     inkscape:window-width="1512"
     inkscape:window-height="866"
     inkscape:window-x="0"
     inkscape:window-y="38"
     inkscape:window-maximized="0"
     inkscape:current-layer="g209"><inkscape:grid
       type="xygrid"
       id="grid1780"
       originx="0"
       originy="0" /></sodipodi:namedview><defs
     id="defs157"><rect
       x="665.60156"
       y="680.77484"
       width="481.49902"
       height="197.25275"
       id="rect760" /><rect
       x="664.59003"
       y="693.92505"
       width="480.48746"
       height="208.37982"
       id="rect754" /><inkscape:perspective
       sodipodi:type="inkscape:persp3d"
       inkscape:vp_x="-4.9070702 : 87.83201 : 1"
       inkscape:vp_y="0 : 1530.1158 : 0"
       inkscape:vp_z="1275.093 : 87.83201 : 1"
       inkscape:persp3d-origin="635.09293 : -95.78188 : 1"
       id="perspective250" /><rect
       x="348.25589"
       y="329.39395"
       width="1.8401896"
       height="16.561707"
       id="rect580" /><clipPath
       id="clip0"><rect
         x="0"
         y="0"
         width="1280"
         height="720"
         id="rect154" /></clipPath><inkscape:perspective
       sodipodi:type="inkscape:persp3d"
       inkscape:vp_x="473.41572 : 89.41333 : 1"
       inkscape:vp_y="0 : 1511.3123 : 0"
       inkscape:vp_z="2158.5593 : 89.41333 : 1"
       inkscape:persp3d-origin="1315.9876 : -91.94414 : 1"
       id="perspective250-0" /></defs><g
     clip-path="url(#clip0)"
     id="g209"><a
       id="a751"
       xlink:href="flux2.html"
       target="_top"
       transform="translate(125.93697,-172.26833)"><text
         font-family="Calibri, Calibri_MSFontService, sans-serif"
         font-weight="400"
         font-size="24px"
         id="text207"
         x="230.94249"
         y="346.18112">Flux 2</text></a><a
       id="a751-7"
       xlink:href="flux1.html"
       target="_top"
       transform="translate(62.05757,-306.78183)"><text
         font-family="Calibri, Calibri_MSFontService, sans-serif"
         font-weight="400"
         font-size="24px"
         id="text207-9"
         x="230.82188"
         y="351.82233">Flux 1</text></a><text
       xml:space="preserve"
       style="fill:#000000"
       x="437.18677"
       y="170.39166"
       id="text576"><tspan
         sodipodi:role="line"
         id="tspan574"
         x="437.18677"
         y="170.39166">RésultatAjoutLotDocument [ITI-65]</tspan></text><text
       xml:space="preserve"
       style="fill:#000000"
       x="374.2063"
       y="40.780796"
       id="text576-1"><tspan
         sodipodi:role="line"
         id="tspan574-7"
         x="374.2063"
         y="40.780796">AjoutLotDocument [ITI-65]</tspan></text><text
       xml:space="preserve"
       id="text578"
       style="white-space:pre;shape-inside:url(#rect580);display:inline;fill:#000000"
       transform="translate(-1.9226434,-106.17648)" /><text
       xml:space="preserve"
       style="fill:#800000"
       x="222.12045"
       y="261.4014"
       id="text586"><tspan
         sodipodi:role="line"
         id="tspan584"
         x="222.12045"
         y="261.4014" /></text><text
       xml:space="preserve"
       style="fill:#ff0000"
       x="245.58287"
       y="259.10117"
       id="text694"><tspan
         sodipodi:role="line"
         id="tspan692"
         x="245.58287"
         y="259.10117" /></text><text
       xml:space="preserve"
       style="fill:#ff0000"
       x="358.10608"
       y="192.08923"
       id="text698"><tspan
         sodipodi:role="line"
         id="tspan696"
         x="358.10608"
         y="192.08923">HTTP OK 200 </tspan><tspan
         sodipodi:role="line"
         x="358.10608"
         y="207.08923"
         id="tspan547">+ ressource &quot;PDSm_ProvideDocumentBundleResponse&quot; contenant: </tspan><tspan
         sodipodi:role="line"
         x="358.10608"
         y="222.08923"
         dx="0 0 0 0 0 0 0 0 0 0 0 0 0 0 0 0 0 0 0 0 0 0 0 0 0 0 0 0 0 0 0 0 0 0 0 0 0 0 0"
         id="tspan545">- statut et localisation des ressources importées du flux 1</tspan></text><text
       xml:space="preserve"
       style="fill:#ff0000"
       x="294.10608"
       y="62.591515"
       id="text698-1"><tspan
         sodipodi:role="line"
         id="tspan696-7"
         x="294.10608"
         y="62.591515">HTTP POST [base] </tspan><tspan
         sodipodi:role="line"
         x="294.10608"
         y="77.591515"
         id="tspan351">+ ressource PDSm_ComprehensiveProvideDocumentBundle contenant:</tspan><tspan
         sodipodi:role="line"
         x="294.10608"
         y="92.591515"
         id="tspan443">- LotDeSoumission (PDSm_SubmissionSetComprehensive),</tspan><tspan
         sodipodi:role="line"
         x="294.10608"
         y="107.59151"
         id="tspan445">- Fiche (PDSm_ComprehensiveDocumentReference),</tspan><tspan
         sodipodi:role="line"
         x="294.10608"
         y="122.59151"
         id="tspan447">- Document (Binary),</tspan><tspan
         sodipodi:role="line"
         x="294.10608"
         y="137.59152"
         id="tspan449">- Dossier (PDSm_FolderComprehensive)</tspan></text><text
       xml:space="preserve"
       style="font-size:17.3333px;fill:#000000"
       x="36.502342"
       y="257.4151"
       id="text468"><tspan
         sodipodi:role="line"
         id="tspan466"
         x="36.502342"
         y="257.4151">Producteur de documents</tspan></text><text
       xml:space="preserve"
       style="font-size:17.3333px;fill:#000000"
       x="782.69171"
       y="273.7515"
       id="text574"><tspan
         sodipodi:role="line"
         id="tspan572"
         x="782.69171"
         y="273.7515">Gestionnaire de partage de documents</tspan></text><a
       id="a751-1"
       xlink:href="flux3.html"
       target="_top"
       transform="translate(61.93697,-83.125739)"><text
         font-family="Calibri, Calibri_MSFontService, sans-serif"
         font-weight="400"
         font-size="24px"
         id="text207-8"
         x="230.94249"
         y="346.18112">Flux 3</text></a><text
       xml:space="preserve"
       style="fill:#000000"
       x="373.18677"
       y="260.54581"
       id="text576-8"><tspan
         sodipodi:role="line"
         id="tspan574-3"
         x="373.18677"
         y="260.54581">MiseAJourMetadonneeFiche [hors MHD]</tspan></text><text
       xml:space="preserve"
       style="fill:#ff0000"
       x="293.83069"
       y="281.23181"
       id="text698-5"><tspan
         sodipodi:role="line"
         id="tspan696-2"
         x="293.83069"
         y="281.23181">HTTP PATCH [base]/DocumentReference?identifier=</tspan><tspan
         sodipodi:role="line"
         x="293.83069"
         y="296.23181"
         id="tspan649">+ champs à modifier (status, securityLabel et PDSm_isArchived)</tspan></text><a
       id="a751-2"
       xlink:href="flux4.html"
       target="_top"
       transform="translate(125.93697,-10.485113)"><text
         font-family="Calibri, Calibri_MSFontService, sans-serif"
         font-weight="400"
         font-size="24px"
         id="text207-6"
         x="230.94249"
         y="346.18112">Flux 4</text></a><text
       xml:space="preserve"
       style="fill:#000000"
       x="437.18677"
       y="332.1749"
       id="text576-6"><tspan
         sodipodi:role="line"
         id="tspan574-78"
         x="437.18677"
         y="332.1749">RésultatMiseAJourMetadonneeFiche [hors MHD]</tspan></text><text
       xml:space="preserve"
       style="fill:#ff0000"
       x="357.83069"
       y="353.87247"
       id="text698-4"><tspan
         sodipodi:role="line"
         x="357.83069"
         y="353.87247"
         id="tspan645">HTTP OK 200 ou erreur 413</tspan></text><path
       d="m 676.00672,25.887265 c 0.31002,0.34799 17.2597,18.86674 17.36726,18.97745 l 0.13919,0.14236 -8.65832,9.45867 c -4.76097,5.20069 -8.71526,9.51561 -8.78486,9.58837 l -0.1297,0.13603 h 7.45305 7.45622 l 8.77853,-9.58837 8.7817,-9.58837 -0.19297,-0.21195 c -0.10756,-0.11389 -4.05869,-4.43197 -8.78486,-9.5947 l -8.59505,-9.38908 h -7.44673 -7.44673 z"
       id="path2428"
       style="fill:#000000;stroke:none;stroke-width:0.00316344" /><path
       d="m 676.00672,243.90214 c 0.31002,0.34799 17.2597,18.86675 17.36726,18.97746 l 0.13919,0.14236 -8.65832,9.45867 c -4.76097,5.20069 -8.71526,9.51561 -8.78486,9.58837 l -0.1297,0.13603 h 7.45305 7.45622 l 8.77853,-9.58837 8.7817,-9.58837 -0.19297,-0.21195 c -0.10756,-0.11389 -4.05869,-4.43197 -8.78486,-9.5947 l -8.59505,-9.38909 h -7.44673 -7.44673 z"
       id="path2428-7"
       style="fill:#000000;stroke:none;stroke-width:0.00316344" /><path
       d="m 354.73317,192.9288 c -0.31002,-0.34798 -17.25969,-18.86672 -17.36726,-18.97744 l -0.13918,-0.14236 8.65832,-9.45867 c 4.76096,-5.20069 8.71526,-9.51561 8.78485,-9.58837 l 0.1297,-0.13603 h -7.45305 -7.45622 l -8.77853,9.58837 -8.7817,9.58837 0.19297,0.21195 c 0.10756,0.11389 4.05869,4.43197 8.78485,9.5947 l 8.59506,9.38909 h 7.44673 7.44673 z"
       id="path2428-3"
       style="fill:#000000;stroke:none;stroke-width:0.00316344" /><path
       d="m 354.73317,360.68955 c -0.31002,-0.34799 -17.2597,-18.86675 -17.36726,-18.97746 l -0.13919,-0.14236 8.65832,-9.45867 c 4.76097,-5.20069 8.71526,-9.51561 8.78486,-9.58837 l 0.1297,-0.13603 h -7.45305 -7.45622 l -8.77853,9.58837 -8.7817,9.58837 0.19297,0.21195 c 0.10756,0.11389 4.05869,4.43197 8.78486,9.5947 l 8.59505,9.38909 h 7.44673 7.44673 z"
       id="path2428-7-1"
       style="fill:#000000;stroke:none;stroke-width:0.00316344" /><text
       xml:space="preserve"
       id="text752"
       style="font-size:17.3333px;white-space:pre;shape-inside:url(#rect754);display:inline;fill:#000000"
       transform="translate(0,-36)" /><text
       xml:space="preserve"
       id="text758"
       style="font-size:17.3333px;white-space:pre;shape-inside:url(#rect760);display:inline;fill:#000000"
       transform="translate(0,-36)" /><g
       transform="matrix(0.0126223,0,0,-0.01267953,872.43719,243.44919)"
       fill="#000000"
       stroke="none"
       id="g3990"><path
         d="M 6110,12234 C 5398,12186 4920,12095 4335,11896 2464,11260 992,9792 348,7920 181,7434 77,6948 23,6395 -2,6137 -1,5559 24,5290 c 10,-107 21,-198 25,-202 5,-5 599,51 609,58 2,1 -5,80 -15,175 -24,240 -24,813 0,1049 48,461 130,855 266,1271 442,1351 1363,2487 2600,3204 186,108 564,290 761,368 414,163 872,285 1295,346 307,45 465,55 835,55 264,0 399,-4 525,-17 756,-77 1411,-264 2064,-592 1752,-876 2934,-2571 3155,-4525 41,-359 45,-816 11,-1169 -9,-90 -15,-164 -13,-165 11,-8 604,-64 609,-58 4,4 15,95 25,202 25,269 26,847 1,1105 -22,219 -40,354 -73,545 -399,2299 -2029,4205 -4239,4956 -504,172 -967,269 -1515,320 -154,14 -718,26 -840,18 z"
         id="path3984" /><path
         d="M 6115,9129 C 5059,9030 4133,8465 3577,7580 3424,7337 3276,7008 3196,6731 3051,6231 3026,5641 3131,5150 c 11,-52 21,-95 22,-96 2,-3 576,114 593,120 9,3 8,23 -2,73 -48,225 -65,464 -53,706 38,739 378,1429 940,1911 409,351 880,559 1439,638 57,8 189,13 330,13 301,0 482,-24 750,-101 1109,-316 1899,-1309 1959,-2460 12,-243 -5,-482 -53,-707 -10,-50 -11,-70 -2,-73 17,-6 591,-123 593,-120 1,1 11,44 22,96 105,493 81,1080 -65,1582 -105,363 -309,774 -524,1058 -332,439 -724,767 -1195,999 -397,196 -769,300 -1220,341 -128,12 -420,11 -550,-1 z"
         id="path3986" /><path
         d="m 6272,6810 c -229,-32 -460,-153 -586,-306 -136,-165 -202,-341 -213,-565 -18,-360 143,-678 427,-845 40,-24 77,-45 81,-46 5,-2 -14,-75 -41,-163 -26,-88 -71,-236 -98,-330 -28,-93 -96,-323 -152,-510 -56,-187 -137,-459 -180,-605 -43,-146 -124,-418 -180,-605 -56,-187 -137,-461 -181,-610 -45,-148 -111,-373 -149,-500 -38,-126 -105,-354 -150,-505 -45,-151 -98,-327 -117,-390 -19,-63 -46,-153 -59,-200 -14,-47 -48,-161 -75,-254 -28,-92 -47,-172 -42,-176 4,-4 70,-26 146,-48 103,-30 140,-37 143,-28 3,7 42,138 88,292 l 83,279 1521,3 1520,2 10,-27 c 5,-16 51,-145 102,-288 50,-143 95,-264 100,-269 5,-5 66,11 147,39 76,27 139,49 141,50 2,2 -99,293 -293,845 -145,411 -334,950 -515,1465 -89,253 -219,624 -290,825 -71,201 -215,610 -320,910 -105,300 -213,606 -239,680 l -48,135 61,37 c 244,146 397,420 413,738 18,361 -140,672 -428,843 -174,102 -431,155 -627,127 z m 301,-1882 c 23,-67 333,-947 386,-1098 27,-74 47,-137 45,-139 -2,-2 -232,54 -512,124 l -509,127 37,126 c 21,70 75,251 120,402 45,151 96,323 113,382 l 32,107 120,4 c 66,1 127,4 137,5 11,1 21,-11 31,-40 z m -108,-1266 510,-128 -679,-407 c -373,-224 -676,-401 -673,-394 3,8 15,48 27,88 20,70 120,406 231,779 59,197 56,190 66,190 4,0 237,-58 518,-128 z m 674,-342 c 32,-93 311,-887 395,-1125 23,-66 40,-121 37,-123 -3,-1 -401,130 -884,291 l -877,292 642,386 c 354,212 646,383 649,380 3,-3 21,-49 38,-101 z M 6433,2284 c 460,-153 837,-281 837,-284 0,-3 -493,-252 -1096,-553 -754,-377 -1094,-542 -1090,-530 10,36 169,573 231,778 34,116 107,360 161,543 55,184 103,331 109,329 5,-2 387,-130 848,-283 z m 1250,-514 c 42,-118 130,-369 196,-558 67,-189 121,-347 121,-353 0,-5 -497,-9 -1332,-8 H 5335 l 1135,568 c 624,313 1136,568 1137,567 1,0 35,-98 76,-216 z"
         id="path3988" /></g><path
       d="m 74.67725,133.56484 c -0.42716,0.0645 -1.26962,0.28201 -1.87477,0.48344 -2.00529,0.67681 -3.48849,1.87734 -4.31909,3.5049 l -0.39156,0.76545 v 32.10818 32.10818 l 0.27291,0.62846 c 0.90179,2.11906 3.06133,3.63383 6.01587,4.222 0.66447,0.13698 2.33753,0.14503 28.03847,0.16921 l 27.31466,0.0161 v 3.97222 c 0,2.22382 -0.0593,4.21396 -0.11866,4.52818 -0.47462,2.20771 -2.6579,4.12532 -5.6955,5.00356 -1.66119,0.48344 -2.12394,0.51568 -8.15168,0.51568 -5.75482,0 -6.18199,0.0242 -7.24989,0.3948 -0.8306,0.29006 -1.54253,0.79767 -1.99343,1.41809 -0.59328,0.82183 -0.66447,1.60338 -0.23731,2.7314 0.68821,1.82094 2.11208,3.31153 3.55969,3.76273 0.47462,0.14503 1.47133,0.1531 34.13739,0.1531 h 33.63905 l 0.617,-0.20949 c 1.25776,-0.42704 2.58672,-1.81288 3.29866,-3.45657 0.41528,-0.95075 0.45087,-2.05459 0.0949,-2.66694 -0.54581,-0.91048 -1.44761,-1.53895 -2.77657,-1.90152 -0.64072,-0.17726 -0.78314,-0.18532 -6.76339,-0.23367 -6.79899,-0.0483 -6.65661,-0.0403 -8.49578,-0.63652 -1.93411,-0.62847 -3.51223,-1.70007 -4.43775,-3.01341 -0.88992,-1.265 -0.86618,-1.11191 -0.91365,-5.98655 l -0.0475,-4.37509 27.32652,-0.0161 c 25.70094,-0.0242 27.37401,-0.0322 28.03845,-0.16921 2.95455,-0.58817 5.11412,-2.10294 6.01589,-4.222 l 0.27292,-0.62846 v -32.10818 -32.10818 l -0.39159,-0.76545 c -0.97296,-1.91762 -2.83585,-3.20678 -5.54123,-3.86748 l -0.83057,-0.20143 -68.82064,-0.0161 c -58.47378,-0.008 -68.93926,0.008 -69.59187,0.0967 z m 135.74272,36.94254 v 30.61759 H 143.97248 77.525 v -30.61759 -30.61759 h 66.44748 66.44749 z"
       id="path4730"
       style="fill:#000000;stroke:none;stroke-width:0.00977773" /></g></svg>
